<svg width="24" height="24" viewBox="0 0 24 24" fill="none" xmlns="http://www.w3.org/2000/svg">
<g clip-path="url(#clip0_897_2123)">
<path d="M0 7.71204V17.5179C0 18.4272 0.361228 19.2993 1.00422 19.9423C1.64721 20.5853 2.51929 20.9465 3.42862 20.9465H20.5717C21.481 20.9465 22.3531 20.5853 22.9961 19.9423C23.6391 19.2993 24.0003 18.4272 24.0003 17.5179V7.71204L13.7968 13.9898C13.2564 14.3222 12.6345 14.4982 12.0002 14.4982C11.3658 14.4982 10.7439 14.3222 10.2036 13.9898L0 7.71204Z" fill="#0D0D0D"/>
<path d="M24.0003 5.69842V5.51785C24.0003 4.60852 23.6391 3.73644 22.9961 3.09345C22.3531 2.45046 21.481 2.08923 20.5717 2.08923H3.42862C2.51929 2.08923 1.64721 2.45046 1.00422 3.09345C0.361228 3.73644 0 4.60852 0 5.51785V5.69842L11.1019 12.5305C11.372 12.6967 11.683 12.7847 12.0002 12.7847C12.3173 12.7847 12.6283 12.6967 12.8985 12.5305L24.0003 5.69842Z" fill="#0D0D0D"/>
</g>
<defs>
<clipPath id="clip0_897_2123">
<rect width="24" height="24" fill="white"/>
</clipPath>
</defs>
</svg>
