<svg width="24" height="24" viewBox="0 0 24 24" fill="none" xmlns="http://www.w3.org/2000/svg">
<path d="M21.7313 2.26906C21.239 1.77687 20.5714 1.50037 19.8753 1.50037C19.1791 1.50037 18.5115 1.77687 18.0193 2.26906L16.8623 3.42606L20.5743 7.13806L21.7313 5.98106C22.2234 5.48879 22.4999 4.82117 22.4999 4.12506C22.4999 3.42894 22.2234 2.76133 21.7313 2.26906ZM19.5133 8.19906L15.8013 4.48706L3.65125 16.6371C3.03411 17.2539 2.58043 18.0148 2.33125 18.8511L1.53125 21.5361C1.49263 21.6656 1.48975 21.8032 1.52292 21.9343C1.55608 22.0654 1.62407 22.185 1.71967 22.2806C1.81527 22.3762 1.93494 22.4442 2.06601 22.4774C2.19709 22.5106 2.33469 22.5077 2.46425 22.4691L5.14925 21.6691C5.98548 21.4199 6.74642 20.9662 7.36325 20.3491L19.5133 8.19906Z" fill="#0D0D0D"/>
</svg>
