<svg width="24" height="24" viewBox="0 0 24 24" fill="none" xmlns="http://www.w3.org/2000/svg">
<path d="M6.825 14.8V15.625M6.825 15.625V16.45M6.825 15.625H7.65M6.825 15.625H6M12.05 6L12.2457 7.53982C12.4926 9.48258 13.9938 11.0283 15.9285 11.3319L17 11.5L15.9285 11.6681C13.9938 11.9717 12.4926 13.5174 12.2457 15.4602L12.05 17L11.8543 15.4602C11.6074 13.5174 10.1062 11.9717 8.17146 11.6681L7.1 11.5L8.17146 11.3319C10.1062 11.0283 11.6074 9.48258 11.8543 7.53983L12.05 6ZM7.65 6L7.69103 6.24908C7.80599 6.947 8.353 7.49401 9.05092 7.60897L9.3 7.65L9.05092 7.69103C8.353 7.80599 7.80599 8.353 7.69103 9.05092L7.65 9.3L7.60897 9.05092C7.49401 8.353 6.947 7.80599 6.24908 7.69103L6 7.65L6.24908 7.60897C6.947 7.49401 7.49401 6.947 7.60897 6.24908L7.65 6Z" stroke="#0D0D0D" stroke-width="1.22222" stroke-linecap="round" stroke-linejoin="round"/>
</svg>
